PathFileType	4	(X/Y/Z)	./resultDataOpenSim/trcMotMarkerGrf/sub06/qtm-05-02.trc
DataRate	CameraRate	NumFrames	NumMarkers	Units	OrigDataRate	OrigDataStartFrame	OrigNumFrames
250.000000	250.000000	10	24	m	250.000000	273	545
Frame#	Time	L.Toe.Tip			R.Toe.Tip			L.Ankle.Lat			R.Ankle.Lat			L.Ankle.Med			R.Ankle.Med			L.Heel			R.Heel			L.Knee.Lat			R.Knee.Lat			L.Knee.Med			R.Knee.Med			L.Thigh.Upper			R.Thigh.Upper			L.ASIS			R.ASIS			V.Sacral			L.Acromium			R.Acromium			C7			L.Elbow			R.Elbow			L.Wrist.Lat			R.Wrist.Lat
		X1	Y1	Z1	X2	Y2	Z2	X3	Y3	Z3	X4	Y4	Z4	X5	Y5	Z5	X6	Y6	Z6	X7	Y7	Z7	X8	Y8	Z8	X9	Y9	Z9	X10	Y10	Z10	X11	Y11	Z11	X12	Y12	Z12	X13	Y13	Z13	X14	Y14	Z14	X15	Y15	Z15	X16	Y16	Z16	X17	Y17	Z17	X18	Y18	Z18	X19	Y19	Z19	X20	Y20	Z20	X21	Y21	Z21	X22	Y22	Z22	X23	Y23	Z23	X24	Y24	Z24

273	1.088	0.070408355	-0.065507496	-0.020729804	0.75816863	0.12017292	0.15838017	-0.036486476	0.0040883478	-0.037893913	0.62499547	0.093096072	0.16724725	-0.023931973	0.018910531	0.047932039	0.64316803	0.1282643	0.084719355	-0.10964393	0.00043150368	0.013908135	0.58919867	0.055610308	0.099523693	0.11691394	0.34724017	-0.057917173	0.52649124	0.46999575	0.19100632	0.1101511	0.34504495	0.063245285	0.51452835	0.44834049	0.068429794	0.20801898	0.71595326	-0.12349385	0.26746059	0.73453342	0.22701778	0.29741669	0.76070885	-0.092652689	0.33699709	0.78415301	0.1503555	0.13434064	0.84409127	0.050831639	0.28439771	1.2512642	-0.136541	0.2713118	1.2352617	0.22705939	0.2000366	1.2839204	0.041603847	0.31876246	0.92510199	-0.21095756	0.11360775	0.96263166	0.27549351	0.55813348	0.88518556	-0.14784031	0.16782727	0.73612785	0.33578645
274	1.092	0.070413864	-0.065525675	-0.020730303	0.76819244	0.12021974	0.15688554	-0.035688748	0.0048768122	-0.038122035	0.63511695	0.092247398	0.16623011	-0.023151564	0.019537809	0.047700148	0.65256061	0.12774114	0.084000875	-0.10872728	0.0017574935	0.013772487	0.59910735	0.054801587	0.098796324	0.12101945	0.34658436	-0.057966159	0.53303264	0.46797389	0.19056299	0.11457338	0.34461234	0.063043374	0.52106165	0.44630677	0.067714236	0.21275403	0.71483982	-0.12302258	0.27494366	0.73306906	0.2273294	0.30260656	0.75953771	-0.092922064	0.34366036	0.78268329	0.14995457	0.14066779	0.8430502	0.051334783	0.29027368	1.2502053	-0.13620231	0.27774087	1.2337553	0.22756603	0.20621148	1.282899	0.042339355	0.32646425	0.9244588	-0.21141992	0.12016342	0.9610269	0.27632456	0.5656216	0.88635498	-0.14650723	0.1743571	0.73464987	0.3369565
275	1.096	0.070419465	-0.065540709	-0.020724215	0.77742466	0.12003502	0.15526356	-0.034854888	0.0056801938	-0.038357374	0.64447132	0.091336506	0.1652375	-0.022427225	0.020151108	0.047423083	0.66116568	0.12703301	0.08316216	-0.10780228	0.0031870389	0.013535235	0.60818992	0.053850663	0.098132347	0.12525364	0.34589393	-0.058030498	0.5396684	0.46614345	0.19005838	0.11907061	0.34413549	0.062913566	0.52755609	0.44440858	0.066966815	0.21757943	0.71373776	-0.12253428	0.28210058	0.73153444	0.22738733	0.30788159	0.75840843	-0.093203423	0.35037465	0.78125245	0.14956128	0.14703103	0.84202764	0.051851414	0.29614801	1.2491663	-0.13582133	0.28420495	1.2322711	0.22810896	0.21257823	1.2818279	0.042899815	0.33417429	0.92383837	-0.21188854	0.12678597	0.95940453	0.27717153	0.57304348	0.88739607	-0.14519432	0.18100823	0.73315883	0.33813149
276	1.1	0.070426834	-0.06555148	-0.020712494	0.78586488	0.11958287	0.15351037	-0.033937162	0.0065041894	-0.038596293	0.653031	0.090321402	0.16425437	-0.021731414	0.020775824	0.047111419	0.66898742	0.1261308	0.082204814	-0.10690398	0.0047583241	0.0131709	0.61645847	0.052727839	0.097497768	0.12962372	0.34516682	-0.058102857	0.54638473	0.46450319	0.18948846	0.12367664	0.34352497	0.062918745	0.53399962	0.44265016	0.066196759	0.22250156	0.71265656	-0.12202933	0.28886181	0.72990364	0.22716209	0.31323856	0.75734239	-0.093477241	0.35713592	0.77987082	0.1491704	0.15343057	0.84102684	0.052381464	0.30201528	1.248156	-0.13539332	0.29071838	1.2308164	0.22869551	0.21910238	1.2807097	0.043333555	0.34188766	0.92324259	-0.21236063	0.13347938	0.95777882	0.27803372	0.58040825	0.88830786	-0.14391563	0.18781836	0.73168051	0.33931979
277	1.104	0.070439815	-0.065557398	-0.020694877	0.79352562	0.11884622	0.15164315	-0.032883764	0.0073617356	-0.03883527	0.66079611	0.089170212	0.16326749	-0.020955499	0.021474897	0.046793755	0.67603908	0.12499557	0.081134739	-0.10600444	0.0064901427	0.012760227	0.6239378	0.051414717	0.096852903	0.13414354	0.34440969	-0.058184448	0.55314466	0.46302699	0.18884817	0.12840709	0.34274534	0.063080702	0.54038637	0.4410387	0.065409301	0.22752831	0.71160571	-0.12150957	0.29545967	0.72827565	0.22678187	0.31863602	0.75635565	-0.093704612	0.36393252	0.77853793	0.14877355	0.15986648	0.84005102	0.052924823	0.3078731	1.2471841	-0.13491595	0.29727793	1.2293982	0.22932793	0.22562401	1.2795911	0.043851291	0.34959937	0.92267324	-0.21283334	0.14024432	0.95616944	0.27891291	0.58772415	0.88909484	-0.1426777	0.19479358	0.73023168	0.3405233
278	1.108	0.070463122	-0.065559018	-0.020670803	0.80044497	0.11781395	0.14970088	-0.031701964	0.008269775	-0.039082298	0.66780489	0.087850969	0.1622571	-0.020005756	0.022287428	0.046496619	0.6823613	0.12360089	0.079960592	-0.10504837	0.0083936967	0.012393613	0.6306646	0.04991447	0.096172457	0.13882004	0.34363756	-0.05830519	0.55988001	0.46165861	0.18812785	0.13331917	0.34183866	0.063285575	0.54669059	0.43957929	0.064595252	0.23266766	0.71058537	-0.12097819	0.30230471	0.72683571	0.22646769	0.32398785	0.75546555	-0.093843187	0.37074751	0.77724339	0.14836556	0.1663386	0.83910323	0.053481295	0.31372562	1.2462613	-0.13438226	0.30388251	1.2280268	0.23000627	0.23200995	1.2785203	0.044628576	0.35730446	0.92213197	-0.21330384	0.147082	0.95458971	0.27980622	0.59499245	0.88976174	-0.14148071	0.20191409	0.72881588	0.3417357
279	1.112	0.070500352	-0.065558564	-0.020641847	0.80667794	0.11646502	0.14773415	-0.030441209	0.0092394076	-0.039353396	0.6740973	0.08634381	0.16121009	-0.018873333	0.023202144	0.046214272	0.68803045	0.12194592	0.078709912	-0.10398325	0.010444573	0.012089432	0.63668279	0.048243315	0.095441771	0.14365504	0.34286821	-0.058502253	0.56650772	0.46033009	0.18731926	0.13853712	0.34088794	0.063307162	0.55286557	0.43826622	0.063734744	0.23792312	0.70958977	-0.12044136	0.30959515	0.72569066	0.2263385	0.32923366	0.75468323	-0.09388172	0.37754658	0.77596343	0.14793803	0.17284666	0.83818639	0.054050644	0.31958013	1.2453956	-0.13378137	0.31054203	1.2267111	0.23073129	0.2382729	1.2775061	0.045649438	0.36499804	0.9216203	-0.21376931	0.15399607	0.95304471	0.28070905	0.60220718	0.89031069	-0.14032439	0.20916308	0.72743328	0.34294868
280	1.116	0.070551308	-0.065558101	-0.020613565	0.81228223	0.11476378	0.14579274	-0.029122336	0.010269608	-0.039657776	0.67970629	0.084644734	0.16012811	-0.017594573	0.024188456	0.045914306	0.69313914	0.12005197	0.077427212	-0.10278141	0.012586312	0.011795813	0.6420381	0.046420095	0.094655236	0.14866317	0.34210942	-0.058771719	0.57298603	0.45900237	0.18644541	0.14413367	0.33996451	0.06298772	0.55888484	0.43709185	0.062821806	0.24329046	0.70862117	-0.11991159	0.31721276	0.72481166	0.22635717	0.33445091	0.7539992	-0.093867142	0.38430864	0.77468408	0.14748631	0.17939047	0.83730346	0.054632664	0.32544089	1.2445919	-0.13311047	0.31726087	1.2254524	0.23150308	0.24451938	1.276529	0.046774132	0.37267523	0.92113982	-0.21422698	0.16099485	0.95154297	0.28162267	0.6093616	0.89074684	-0.13920702	0.21653646	0.72608545	0.34415597
281	1.12	0.07061306	-0.065557237	-0.020592135	0.81731146	0.11267279	0.14392001	-0.027725373	0.011359989	-0.039994597	0.68467474	0.08275644	0.15902225	-0.016186287	0.02522159	0.045564038	0.69776888	0.11795618	0.076154512	-0.10144262	0.014780906	0.011457824	0.64677174	0.044461573	0.093819184	0.15387188	0.34135455	-0.059062857	0.57937276	0.45768425	0.18557786	0.14999505	0.33909297	0.06240589	0.56476407	0.43605302	0.061877923	0.24876233	0.70768711	-0.11940184	0.32495278	0.72412072	0.22643945	0.33981551	0.75338489	-0.093871881	0.39109664	0.77345212	0.14704265	0.18596994	0.83645746	0.055227189	0.33131036	1.2438539	-0.13237531	0.32403235	1.2242477	0.23232093	0.2508314	1.2755729	0.047900228	0.38033121	0.92069214	-0.21467408	0.16809015	0.95009925	0.28255041	0.61645125	0.89107516	-0.138127	0.22403768	0.72477659	0.34535477
282	1.124	0.070683341	-0.065554438	-0.020579317	0.82180761	0.11018085	0.14215307	-0.026219271	0.012515617	-0.040365535	0.68905772	0.080682052	0.15790334	-0.014635357	0.026287094	0.045148204	0.70196789	0.11569263	0.074909657	-0.099977544	0.017033305	0.011057922	0.65092116	0.042374178	0.092942795	0.15929335	0.34059409	-0.059335996	0.58577518	0.45638783	0.1847667	0.155908	0.33823708	0.061812044	0.57053029	0.43513298	0.060932241	0.25433441	0.70679082	-0.11891227	0.33268832	0.72356398	0.22653238	0.34542486	0.752814	-0.09392652	0.39803875	0.77236547	0.14667236	0.19258503	0.83565142	0.05583407	0.33719802	1.2431866	-0.13157749	0.33084962	1.2230982	0.23318478	0.25722719	1.2746376	0.049017133	0.38796113	0.92027897	-0.21510785	0.17528882	0.94872585	0.28349091	0.62347177	0.89129367	-0.1370857	0.23167585	0.72351602	0.34654651
